<svg width="53" height="53" viewBox="0 0 53 53" fill="none" xmlns="http://www.w3.org/2000/svg">
<path d="M9.53264 0C7.00443 0 4.57976 1.00433 2.79205 2.79205C1.00433 4.57976 0 7.00443 0 9.53264V27.2729C0 28.5248 0.246569 29.7643 0.725629 30.9209C1.20469 32.0774 1.90686 33.1283 2.79205 34.0135C4.57976 35.8012 7.00443 36.8056 9.53264 36.8056H26.8048C27.346 38.7174 28.5713 40.3634 30.2475 41.4304C31.9236 42.4975 33.9336 42.9109 35.8948 42.5921C37.856 42.2734 39.6316 41.2446 40.8835 39.7017C42.1355 38.1587 42.7764 36.2093 42.6843 34.2245C42.5922 32.2397 41.7735 30.358 40.3841 28.9376C38.9946 27.5172 37.1315 26.6573 35.1491 26.5215C33.1668 26.3857 31.2038 26.9835 29.6336 28.2012C28.0635 29.4188 26.9959 31.1713 26.634 33.125H9.53264C7.98057 33.125 6.49207 32.5084 5.39459 31.411C4.29711 30.3135 3.68056 28.825 3.68056 27.2729V9.53264C3.68056 7.98057 4.29711 6.49207 5.39459 5.39459C6.49207 4.29711 7.98057 3.68056 9.53264 3.68056H27.2729C28.825 3.68056 30.3135 4.29711 31.411 5.39459C32.5084 6.49207 33.125 7.98057 33.125 9.53264V9.9375C33.125 10.4256 33.3189 10.8937 33.664 11.2388C34.0091 11.5839 34.4772 11.7778 34.9653 11.7778C35.4534 11.7778 35.9214 11.5839 36.2666 11.2388C36.6117 10.8937 36.8056 10.4256 36.8056 9.9375V9.53264C36.8056 8.2808 36.559 7.04121 36.0799 5.88466C35.6009 4.7281 34.8987 3.67723 34.0135 2.79205C33.1283 1.90686 32.0774 1.20469 30.9209 0.725629C29.7643 0.246569 28.5248 0 27.2729 0H9.53264ZM16.1944 43.7986V43.0625C16.1944 42.5744 16.3883 42.1063 16.7334 41.7612C17.0786 41.4161 17.5466 41.2222 18.0347 41.2222C18.5228 41.2222 18.9909 41.4161 19.336 41.7612C19.6811 42.1063 19.875 42.5744 19.875 43.0625V43.7986C19.875 45.2628 20.4567 46.6671 21.492 47.7024C22.5274 48.7378 23.9316 49.3194 25.3958 49.3194H43.7986C45.2628 49.3194 46.6671 48.7378 47.7024 47.7024C48.7378 46.6671 49.3194 45.2628 49.3194 43.7986V25.3958C49.3194 23.9316 48.7378 22.5274 47.7024 21.492C46.6671 20.4567 45.2628 19.875 43.7986 19.875H26.3675C25.9963 21.8576 24.8986 23.6304 23.2894 24.8466C21.6801 26.0627 19.675 26.6347 17.6663 26.4506C15.6577 26.2664 13.7899 25.3395 12.4286 23.8511C11.0672 22.3627 10.3102 20.4199 10.3056 18.4028C10.3037 16.447 11.0097 14.5567 12.2932 13.081C13.5767 11.6053 15.351 10.6441 17.2881 10.3748C19.2253 10.1056 21.1944 10.5466 22.8317 11.6164C24.469 12.6861 25.6637 14.3123 26.1952 16.1944H43.7986C46.239 16.1944 48.5794 17.1639 50.305 18.8895C52.0306 20.6151 53 22.9555 53 25.3958V43.7986C53 46.239 52.0306 48.5794 50.305 50.305C48.5794 52.0306 46.239 53 43.7986 53H25.3958C22.9555 53 20.6151 52.0306 18.8895 50.305C17.1639 48.5794 16.1944 46.239 16.1944 43.7986Z" fill="black"/>
</svg>
