<svg width="51" height="53" viewBox="0 0 51 53" fill="white" xmlns="http://www.w3.org/2000/svg">
<path d="M34.9295 28.3312L34.7629 28.3842C34.4235 28.4891 34.0719 28.5444 33.7181 28.5485C32.1785 28.5485 31.3103 27.4567 31.7747 26.1078C32.118 25.122 33.0139 24.2899 34.1092 23.9057C35.8052 23.2564 36.9914 21.7751 36.9914 20.0499C36.9914 17.7259 34.8386 15.8444 32.1836 15.8444C29.5285 15.8444 27.3757 17.7259 27.3757 20.0499V32.9501C27.3757 36.0506 25.6646 38.7722 23.1029 40.3118C21.639 41.1875 19.9824 41.6461 18.2976 41.6421C13.2903 41.6421 9.21691 37.744 9.21691 32.9501C9.21691 31.4237 9.63081 29.9901 10.3551 28.7446C11.4757 26.8101 13.3433 25.334 15.5794 24.6609C15.9631 24.5337 16.3542 24.4675 16.7404 24.4675C18.285 24.4675 19.1582 25.5645 18.6913 26.916C18.3733 27.8356 17.5152 28.6253 16.5183 29.044C16.3999 29.0858 16.2829 29.1318 16.1675 29.1818C14.5825 29.8708 13.4897 31.2965 13.4897 32.9501C13.4897 35.2742 15.6425 37.1557 18.2976 37.1557C20.9526 37.1557 23.1029 35.2742 23.1029 32.9501V20.0499C23.1029 16.9494 24.8166 14.2279 27.3782 12.6882C28.8422 11.8126 30.4988 11.354 32.1836 11.3579C37.1908 11.3579 41.2642 15.2561 41.2642 20.0499C41.2613 21.5351 40.8674 22.9906 40.126 24.2555C39.0105 26.1794 37.1504 27.6528 34.9295 28.3312ZM0.00500488 26.5C0.00500488 41.136 11.3041 53 25.2431 53C39.1821 53 50.4812 41.136 50.4812 26.5C50.4812 11.8641 39.1821 0 25.2431 0C11.3041 0 0.00500488 11.8641 0.00500488 26.5Z" fill="black"/>
</svg>
